<svg width="26" height="28" viewBox="0 0 26 28" fill="none" xmlns="http://www.w3.org/2000/svg">
<path d="M3.29374 21.1218L6.52985 16.3751C7.28966 15.2606 8.69985 14.7902 9.97655 15.2255L20.5928 18.8444" stroke="#555555" stroke-width="1.5" stroke-linecap="round"/>
<circle cx="13.1489" cy="11.0895" r="1.33333" transform="rotate(-14.0819 13.1489 11.0895)" fill="#555555"/>
<path d="M4.51114 25.9724L0.780417 11.0998C0.646042 10.5641 0.971371 10.0209 1.50706 9.88657L16.3796 6.15585C16.9153 6.02148 17.4585 6.34681 17.5929 6.88249L21.3236 21.755C21.458 22.2907 21.1326 22.8339 20.5969 22.9683L5.7244 26.699C5.18871 26.8334 4.64551 26.5081 4.51114 25.9724Z" stroke="#555555" stroke-width="1.5" stroke-linecap="round"/>
<path fill-rule="evenodd" clip-rule="evenodd" d="M20.3791 0.0364138C21.3256 -0.158783 22.2512 0.450257 22.4465 1.39677L25.5432 16.4143C25.7381 17.3608 25.1293 18.2865 24.1828 18.4817L22.4309 18.8421L22.0656 17.386L23.8801 17.012C24.0151 16.984 24.1021 16.8522 24.0744 16.7171L20.9777 1.6995C20.9497 1.56443 20.817 1.4773 20.6818 1.50516L5.66524 4.60184C5.53001 4.62973 5.44302 4.76252 5.4709 4.89774L5.84395 6.70927L4.3879 7.07548L4.00118 5.20048C3.80611 4.25397 4.416 3.32828 5.3625 3.13309L20.3791 0.0364138Z" fill="#555555"/>
</svg>
