<svg xmlns="http://www.w3.org/2000/svg" viewBox="0 0 25 25" fill="none"><path d="M21.0835 4.13532C12.1576 -5.03665 -3.84856 4.98531 2.19355 17.9562L1.74056 22.6032C1.71756 22.8412 1.80256 23.0772 1.97156 23.2462C2.14056 23.4151 2.37655 23.5002 2.61455 23.4771L7.26249 23.0252C20.2266 29.0381 30.2665 13.1132 21.0835 4.13532ZM19.9925 19.7534C16.5655 23.2393 11.5515 23.4403 7.34742 21.4084L3.42755 21.7894L3.80955 17.8695C-1.88542 6.5356 11.8065 -2.90542 19.9527 5.26661C23.3137 8.62866 24.7537 14.6037 19.9927 19.7536L19.9925 19.7534ZM16.5716 9.46726C16.6856 10.2903 16.5256 11.1283 16.1156 11.8523C15.7066 12.5753 15.0706 13.1443 14.3056 13.4713C13.8246 13.6983 13.5206 14.1863 13.5286 14.7183V15.5223C13.5226 15.9602 13.1666 16.3112 12.7286 16.3112C12.2916 16.3112 11.9356 15.9602 11.9286 15.5223V14.7183C11.9226 13.5523 12.6006 12.4903 13.6626 12.0062C14.5816 11.6052 15.1216 10.6412 14.9826 9.6482C14.8446 8.4472 13.7916 7.56221 12.5846 7.6332C11.3776 7.7032 10.4356 8.7042 10.4386 9.91421C10.4386 10.1262 10.3546 10.3292 10.2046 10.4792C10.0546 10.6292 9.8506 10.7142 9.63861 10.7142C7.8956 10.5032 9.34159 7.51625 10.2286 6.93411V6.93311C10.9496 6.33512 11.8616 6.01811 12.7976 6.03911C13.7346 6.06011 14.6316 6.41811 15.3246 7.0481C16.0186 7.67809 16.4606 8.53727 16.5716 9.46726ZM12.7285 18.9541C12.2975 18.9401 11.9565 18.5861 11.9565 18.1541C11.9565 17.7231 12.2975 17.3691 12.7285 17.3541C13.1595 17.3691 13.5015 17.7231 13.5015 18.1541C13.5015 18.5861 13.1595 18.9401 12.7285 18.9541Z" fill="currentColor"/></svg>
