<svg xmlns="http://www.w3.org/2000/svg" viewBox="0 0 20 20" fill="none"><path d="M14.2847 0.275391C14.3961 0.275406 14.4998 0.308839 14.5864 0.365234L14.6675 0.428711V0.429688L19.5649 5.18164C19.6628 5.27685 19.7251 5.41034 19.7251 5.55859V18.0059C19.7251 18.9576 18.9289 19.7254 17.9575 19.7256H2.04248C1.07097 19.7255 0.274902 18.9577 0.274902 18.0059V1.99414C0.275094 1.04253 1.07112 0.275502 2.04248 0.275391H14.2847ZM2.04248 1.33789C1.66433 1.3379 1.36198 1.63542 1.36182 1.99414V18.0059C1.36182 18.3639 1.66339 18.6631 2.04248 18.6631H17.9565C18.3358 18.6631 18.6372 18.3648 18.6372 18.0059L18.6382 6.08984H14.2847C13.988 6.08984 13.7408 5.85543 13.7407 5.55859V1.33789H2.04248ZM15.5093 15.125C15.8058 15.1251 16.0522 15.3594 16.0522 15.6562C16.0522 15.9531 15.8059 16.1874 15.5093 16.1875H4.4917C4.19499 16.1875 3.94775 15.9532 3.94775 15.6562C3.94782 15.3594 4.19503 15.125 4.4917 15.125H15.5093ZM15.5093 11.5615C15.8057 11.5617 16.052 11.7952 16.0522 12.0918C16.0522 12.3886 15.8058 12.6229 15.5093 12.623H4.49072C4.1942 12.6228 3.94775 12.3886 3.94775 12.0918C3.94799 11.7952 4.19434 11.5617 4.49072 11.5615H15.5093ZM15.5093 7.99707C15.8058 7.99719 16.0522 8.23152 16.0522 8.52832C16.0522 8.82518 15.8059 9.05945 15.5093 9.05957H4.4917C4.19499 9.05957 3.94775 8.82526 3.94775 8.52832C3.94783 8.23144 4.19504 7.99707 4.4917 7.99707H15.5093ZM11.2241 4.43359C11.5208 4.43359 11.7681 4.6679 11.7681 4.96484C11.768 5.26171 11.5208 5.49609 11.2241 5.49609H4.4917C4.19504 5.49609 3.94784 5.26171 3.94775 4.96484C3.94775 4.6679 4.19499 4.43359 4.4917 4.43359H11.2241ZM14.8286 5.02734H17.8618L14.8286 2.08203V5.02734Z" fill="currentColor" stroke="currentColor" stroke-width="0.25"/></svg>
