<?xml version="1.0" encoding="utf-8"?>
<!DOCTYPE svg PUBLIC "-//W3C//DTD SVG 20010904//EN" "http://www.w3.org/TR/2001/REC-SVG-20010904/DTD/svg10.dtd">
<svg version="1.0" xmlns="http://www.w3.org/2000/svg" width="722pt" height="802pt" viewBox="0 0 722 802" style="" preserveAspectRatio="xMidYMid meet">
<g fill="#DA2020FE" stroke="#DA2020FE">
<path d="M 338.500 2.660 C 336.850 2.833 330.775 3.474 325.000 4.083 C 309.003 5.770 287.148 10.593 270.500 16.110 C 262.250 18.843 254.150 21.694 252.500 22.445 C 250.850 23.195 246.772 24.948 243.437 26.339 C 240.103 27.730 234.928 30.172 231.937 31.767 C 216.259 40.125 212.470 42.300 212.165 43.117 C 211.980 43.610 211.469 43.790 211.028 43.517 C 210.587 43.245 209.671 43.692 208.991 44.511 C 208.311 45.330 207.135 46.000 206.378 46.000 C 205.620 46.000 205.000 46.406 205.000 46.902 C 205.000 47.398 203.650 48.275 202.000 48.850 C 200.350 49.425 199.000 50.379 199.000 50.969 C 199.000 51.560 197.763 52.582 196.250 53.240 C 192.928 54.686 177.824 65.851 176.700 67.690 C 176.260 68.411 175.313 69.000 174.595 69.000 C 173.877 69.000 172.212 70.246 170.895 71.769 C 169.578 73.292 166.852 75.760 164.839 77.252 C 157.596 82.622 130.227 110.996 129.093 114.311 C 128.870 114.965 127.789 116.288 126.690 117.250 C 125.592 118.213 124.962 119.000 125.291 119.000 C 125.619 119.000 124.516 120.463 122.841 122.250 C 121.165 124.038 119.278 126.651 118.647 128.058 C 118.016 129.465 116.454 131.940 115.176 133.558 C 111.929 137.668 105.972 147.304 101.921 155.000 C 100.040 158.575 98.163 161.650 97.750 161.833 C 97.338 162.017 97.002 162.692 97.004 163.333 C 97.007 163.975 95.482 167.650 93.616 171.500 C 79.220 201.198 70.841 234.125 67.928 272.448 C 66.788 287.443 67.628 316.296 69.473 325.500 C 69.583 326.050 69.987 328.750 70.372 331.500 C 71.825 341.901 74.739 357.408 75.728 360.000 C 76.043 360.825 76.452 362.267 76.637 363.205 C 77.537 367.765 82.315 384.853 83.429 387.500 C 84.124 389.150 85.275 392.300 85.987 394.500 C 86.699 396.700 88.569 401.324 90.141 404.775 C 91.713 408.226 93.000 411.327 93.000 411.666 C 93.000 412.410 96.663 420.525 98.568 424.000 C 99.322 425.375 100.461 427.625 101.100 429.000 C 104.139 435.538 107.583 441.877 110.164 445.680 C 111.724 447.979 113.000 450.141 113.000 450.485 C 113.000 450.829 114.800 453.760 117.000 457.000 C 119.200 460.240 121.000 463.365 121.000 463.945 C 121.000 464.525 121.406 465.000 121.901 465.000 C 122.739 465.000 125.692 469.152 128.835 474.750 C 129.570 476.058 130.807 477.373 131.585 477.671 C 132.363 477.970 133.000 478.691 133.000 479.273 C 133.000 479.856 133.668 481.045 134.483 481.916 C 135.299 482.787 138.203 486.267 140.935 489.648 C 146.572 496.624 161.560 511.930 170.500 519.842 C 173.800 522.762 177.513 526.121 178.750 527.305 C 179.988 528.489 181.000 529.150 181.000 528.774 C 181.000 528.398 182.045 529.083 183.321 530.295 C 184.598 531.508 186.925 533.400 188.493 534.500 C 190.060 535.600 193.263 538.075 195.611 540.000 C 197.958 541.925 201.594 544.396 203.689 545.490 C 205.785 546.585 207.725 547.749 208.000 548.077 C 208.275 548.405 210.750 549.948 213.500 551.506 C 216.250 553.064 219.199 554.927 220.052 555.645 C 220.906 556.364 222.706 557.155 224.052 557.402 C 225.399 557.649 226.071 557.885 225.548 557.926 C 224.151 558.035 238.019 565.000 239.632 565.000 C 240.384 565.000 241.000 565.450 241.000 566.000 C 241.000 566.550 241.810 567.000 242.800 567.000 C 243.790 567.000 245.028 567.428 245.551 567.951 C 246.461 568.861 264.330 575.655 268.500 576.677 C 269.600 576.946 271.400 577.574 272.500 578.071 C 274.934 579.171 290.551 583.393 296.500 584.559 C 297.600 584.775 300.525 585.374 303.000 585.890 C 334.859 592.540 380.471 592.754 415.000 586.418 C 424.979 584.587 445.495 579.340 448.074 577.960 C 449.061 577.432 450.686 576.997 451.684 576.994 C 452.683 576.990 454.760 576.330 456.301 575.527 C 457.841 574.723 460.541 573.629 462.301 573.094 C 471.935 570.167 489.059 562.518 494.249 558.823 C 495.762 557.745 497.000 557.116 497.000 557.424 C 497.000 557.897 501.308 555.738 510.893 550.464 C 511.929 549.894 514.514 548.270 516.638 546.855 C 518.762 545.440 523.757 542.164 527.737 539.573 C 531.717 536.983 536.743 533.432 538.906 531.682 C 541.068 529.932 543.717 527.825 544.793 527.000 C 555.948 518.442 573.622 501.707 572.057 501.186 C 571.475 500.992 571.000 501.224 571.000 501.701 C 571.000 502.178 569.538 503.430 567.750 504.483 C 565.963 505.536 562.786 507.980 560.691 509.914 C 558.596 511.848 555.461 514.028 553.723 514.758 C 551.986 515.489 550.325 516.440 550.032 516.872 C 549.740 517.303 548.150 518.360 546.500 519.220 C 544.850 520.079 540.800 522.236 537.500 524.012 C 526.247 530.068 520.254 533.000 519.126 533.000 C 518.507 533.000 518.000 533.354 518.000 533.787 C 518.000 534.220 517.063 534.645 515.918 534.731 C 514.772 534.818 510.835 536.014 507.168 537.390 C 487.070 544.932 462.918 549.072 437.000 549.419 C 412.110 549.752 399.342 548.240 373.911 541.947 C 353.704 536.948 321.379 523.445 308.238 514.516 C 306.202 513.132 304.195 512.000 303.779 512.000 C 303.363 512.000 302.230 511.340 301.261 510.534 C 298.004 507.822 292.528 504.096 288.750 502.020 C 286.688 500.887 285.000 499.518 285.000 498.980 C 285.000 498.441 284.420 498.000 283.712 498.000 C 283.004 498.000 280.118 495.835 277.299 493.189 C 274.481 490.543 270.564 487.280 268.594 485.939 C 266.625 484.597 265.011 483.132 265.007 482.682 C 265.003 482.232 261.738 478.572 257.750 474.549 C 248.696 465.415 240.628 456.363 240.092 454.737 C 239.868 454.057 238.855 452.912 237.842 452.193 C 236.829 451.475 236.000 450.440 236.000 449.894 C 236.000 448.829 228.052 436.904 226.665 435.888 C 226.205 435.552 225.877 434.984 225.935 434.628 C 226.141 433.365 222.934 428.000 221.974 428.000 C 221.438 428.000 221.000 427.318 221.000 426.484 C 221.000 425.651 219.240 421.488 217.089 417.234 C 211.632 406.441 208.793 399.301 204.670 386.000 C 196.807 360.635 194.545 343.532 195.280 315.000 C 195.751 296.750 196.941 287.354 198.321 291.000 C 199.042 292.903 204.865 312.137 206.406 317.702 C 207.046 320.012 207.892 322.225 208.285 322.618 C 208.678 323.012 209.000 323.958 209.000 324.722 C 209.000 326.023 209.752 327.867 215.434 340.500 C 216.671 343.250 218.292 347.075 219.036 349.000 C 219.780 350.925 221.201 353.850 222.194 355.500 C 223.187 357.150 224.481 359.701 225.069 361.170 C 225.658 362.638 226.783 364.087 227.570 364.388 C 228.356 364.690 229.000 365.610 229.000 366.433 C 229.000 368.331 233.778 377.143 235.597 378.599 C 236.351 379.203 236.746 379.920 236.475 380.192 C 236.203 380.464 237.110 381.905 238.490 383.395 C 239.871 384.884 241.000 386.530 241.000 387.052 C 241.000 387.573 241.353 388.000 241.784 388.000 C 242.216 388.000 243.373 389.362 244.357 391.027 C 245.340 392.692 247.237 395.147 248.573 396.482 C 249.908 397.817 251.000 399.393 251.000 399.983 C 251.000 400.574 257.427 407.457 265.283 415.279 C 280.082 430.014 283.393 433.000 284.928 433.000 C 285.426 433.000 285.983 433.341 286.167 433.757 C 286.624 434.797 294.618 441.000 295.500 441.000 C 295.892 441.000 297.864 442.309 299.884 443.908 C 301.903 445.507 307.143 448.701 311.528 451.005 C 315.912 453.309 319.950 455.525 320.500 455.930 C 321.050 456.334 323.075 457.242 325.000 457.948 C 326.925 458.654 330.933 460.332 333.907 461.677 C 340.297 464.568 352.523 468.647 356.830 469.326 C 358.506 469.590 360.346 470.096 360.918 470.449 C 361.993 471.114 372.378 473.333 382.000 474.955 C 385.025 475.465 389.075 476.173 391.000 476.529 C 400.420 478.270 434.601 477.733 452.500 475.562 C 460.083 474.643 478.229 470.810 482.000 469.331 C 482.825 469.008 484.400 468.628 485.500 468.487 C 488.738 468.072 502.271 463.883 505.172 462.397 C 506.642 461.645 510.017 460.300 512.672 459.409 C 518.451 457.469 537.953 448.018 539.820 446.252 C 540.546 445.565 542.233 444.729 543.570 444.393 C 544.906 444.058 546.000 443.307 546.000 442.725 C 546.000 442.143 546.298 441.965 546.662 442.329 C 547.026 442.693 548.796 441.868 550.595 440.495 C 552.394 439.123 554.285 438.000 554.796 438.000 C 555.736 438.000 562.173 433.322 565.084 430.523 C 565.955 429.685 567.111 429.000 567.654 429.000 C 568.557 429.000 573.201 425.329 577.084 421.544 C 577.955 420.695 579.155 420.000 579.751 420.000 C 580.346 420.000 580.983 419.623 581.167 419.162 C 581.350 418.701 584.980 415.301 589.234 411.607 C 595.874 405.840 599.410 402.042 609.816 389.500 C 619.341 378.019 624.774 369.844 633.739 353.500 C 637.004 347.549 642.613 333.481 645.102 325.000 C 646.152 321.425 647.415 317.150 647.910 315.500 C 649.232 311.094 650.721 303.560 652.060 294.500 C 653.779 282.867 652.830 246.010 650.526 235.000 C 647.618 221.098 643.096 205.399 640.032 198.570 C 638.453 195.051 637.376 191.957 637.639 191.694 C 637.902 191.431 636.669 188.130 634.899 184.358 C 633.129 180.586 631.603 177.275 631.509 177.000 C 630.388 173.745 626.922 167.070 626.083 166.551 C 625.487 166.183 625.000 165.163 625.000 164.285 C 625.000 163.407 623.875 161.214 622.500 159.411 C 621.125 157.608 620.000 155.743 620.000 155.266 C 620.000 154.788 618.200 151.628 616.000 148.242 C 613.800 144.856 612.000 141.823 612.000 141.502 C 612.000 140.536 607.592 134.559 606.243 133.696 C 605.552 133.254 604.024 131.004 602.849 128.696 C 600.524 124.131 595.987 117.712 594.685 117.145 C 594.237 116.950 593.461 115.712 592.960 114.395 C 592.459 113.078 591.337 112.000 590.466 112.000 C 589.595 112.000 589.154 111.560 589.487 111.021 C 589.820 110.483 588.609 108.410 586.796 106.414 C 577.615 96.308 563.040 81.000 562.599 81.000 C 562.437 81.000 559.866 78.638 556.885 75.750 C 550.527 69.591 547.325 67.000 546.072 67.000 C 545.574 67.000 545.017 66.622 544.833 66.159 C 544.326 64.879 533.935 57.183 525.500 51.839 C 522.750 50.097 518.087 47.113 515.138 45.208 C 501.783 36.582 463.396 19.159 453.700 17.324 C 451.940 16.991 450.050 16.391 449.500 15.990 C 448.011 14.905 415.573 7.274 407.500 6.109 C 387.203 3.182 381.811 2.757 362.500 2.559 C 350.950 2.441 340.150 2.486 338.500 2.660 M 400.529 40.401 C 406.595 41.222 413.570 42.340 416.029 42.888 C 418.488 43.435 421.645 44.088 423.045 44.338 C 425.376 44.755 434.500 47.260 444.500 50.228 C 448.265 51.346 456.080 54.322 464.000 57.655 C 468.857 59.699 492.388 71.377 493.000 72.048 C 493.275 72.349 495.750 73.885 498.500 75.461 C 501.250 77.037 503.725 78.591 504.000 78.913 C 505.149 80.261 510.999 84.000 511.960 84.000 C 512.532 84.000 513.000 84.450 513.000 85.000 C 513.000 85.550 513.627 86.000 514.393 86.000 C 515.159 86.000 516.045 86.675 516.362 87.500 C 516.678 88.325 517.526 89.000 518.246 89.000 C 518.966 89.000 520.250 89.788 521.100 90.750 C 521.949 91.713 526.409 95.875 531.010 100.000 C 540.496 108.504 540.683 108.691 547.500 116.534 C 550.250 119.697 552.950 122.784 553.500 123.393 C 555.560 125.674 562.705 135.619 564.534 138.750 C 565.577 140.538 566.784 142.000 567.216 142.000 C 567.647 142.000 568.000 142.643 568.000 143.429 C 568.000 144.214 568.563 145.452 569.250 146.179 C 571.445 148.499 578.820 164.142 583.033 175.413 C 590.013 194.085 591.372 202.373 591.331 226.000 C 591.296 245.701 591.171 246.987 588.109 259.000 C 584.056 274.902 578.853 288.459 573.523 297.000 C 572.322 298.925 569.811 303.425 567.943 307.000 C 566.076 310.575 564.087 313.831 563.524 314.235 C 562.961 314.639 562.824 314.976 563.219 314.985 C 563.614 314.993 562.264 316.812 560.219 319.027 L 556.500 323.054 556.500 318.277 C 556.500 315.650 556.801 313.271 557.168 312.991 C 558.646 311.867 560.240 286.829 559.716 272.965 C 559.055 255.458 557.871 248.100 553.125 232.000 C 548.391 215.943 537.702 194.845 529.500 185.372 C 528.950 184.736 526.925 182.267 525.000 179.884 C 517.346 170.410 501.819 156.338 491.326 149.365 C 486.472 146.139 482.266 143.192 481.981 142.815 C 480.654 141.063 460.928 131.926 459.876 132.576 C 459.132 133.036 458.956 132.881 459.402 132.159 C 460.099 131.030 458.250 130.005 451.000 127.500 C 449.779 127.078 446.220 125.720 443.000 124.446 C 416.932 114.138 378.340 108.130 346.156 109.371 C 323.185 110.256 316.534 111.049 294.500 115.531 C 282.624 117.947 264.318 123.675 254.500 128.046 C 222.065 142.488 209.455 150.874 188.406 172.000 C 177.691 182.754 176.000 184.577 176.000 185.372 C 176.000 185.791 174.429 187.791 172.509 189.817 C 170.588 191.843 169.013 193.869 169.009 194.320 C 169.004 194.771 167.650 197.102 166.000 199.500 C 164.350 201.898 163.000 204.342 163.000 204.930 C 163.000 205.519 162.550 206.000 162.000 206.000 C 161.450 206.000 161.000 206.675 161.000 207.500 C 161.000 208.325 160.550 209.000 160.000 209.000 C 159.450 209.000 159.000 209.559 159.000 210.241 C 159.000 210.924 157.408 214.705 155.461 218.644 C 153.515 222.583 151.740 226.751 151.518 227.907 C 151.295 229.062 150.754 230.568 150.315 231.254 C 146.268 237.569 138.407 277.204 139.061 288.000 C 139.393 293.495 138.968 297.365 138.133 296.450 C 136.820 295.012 133.259 280.541 131.953 271.336 C 130.858 263.617 131.152 234.452 132.410 226.000 C 133.632 217.789 141.312 191.123 143.827 186.361 C 144.367 185.338 147.812 178.313 151.482 170.750 C 155.152 163.188 158.458 157.000 158.829 157.000 C 159.200 157.000 160.578 154.975 161.891 152.500 C 163.204 150.025 164.597 148.000 164.987 148.000 C 165.377 148.000 166.496 146.227 167.473 144.059 C 168.451 141.891 169.869 139.880 170.625 139.590 C 171.381 139.300 172.000 138.411 172.000 137.615 C 172.000 136.818 172.374 136.017 172.831 135.833 C 173.288 135.650 177.717 130.775 182.673 125.000 C 191.579 114.621 209.411 97.000 211.008 97.000 C 211.462 97.000 211.983 96.663 212.167 96.250 C 212.350 95.838 214.750 93.723 217.500 91.550 C 220.250 89.378 223.481 86.658 224.680 85.507 C 225.879 84.355 228.129 82.776 229.680 81.998 C 231.231 81.219 233.549 79.439 234.831 78.041 C 236.113 76.644 237.356 75.622 237.592 75.770 C 238.111 76.097 244.295 72.994 245.000 72.054 C 245.275 71.687 247.001 70.779 248.835 70.037 C 250.670 69.294 252.695 68.191 253.335 67.586 C 255.530 65.511 278.495 55.112 290.000 50.984 C 304.917 45.632 329.147 40.443 346.000 38.991 C 359.023 37.869 387.186 38.597 400.529 40.401 M 376.000 211.448 C 381.225 212.238 387.075 213.544 389.000 214.351 C 390.925 215.158 392.950 215.913 393.500 216.029 C 397.648 216.903 408.000 221.944 408.000 223.089 C 408.000 223.590 408.830 224.000 409.845 224.000 C 410.860 224.000 416.001 228.275 421.268 233.500 C 426.536 238.725 430.633 243.000 430.372 243.000 C 429.958 243.000 434.638 249.658 435.994 251.000 C 436.272 251.275 436.625 252.175 436.778 253.000 C 436.932 253.825 437.554 255.625 438.162 257.000 C 439.955 261.055 440.793 263.265 442.142 267.500 C 442.844 269.700 443.722 271.950 444.095 272.500 C 444.468 273.050 445.358 279.022 446.075 285.771 C 447.482 299.034 446.584 310.650 443.272 322.000 C 442.390 325.025 441.544 327.950 441.393 328.500 C 437.815 341.548 420.964 363.282 410.000 368.990 C 408.625 369.706 407.140 370.901 406.700 371.646 C 406.260 372.391 405.009 373.000 403.919 373.000 C 402.829 373.000 401.679 373.672 401.364 374.494 C 401.048 375.316 400.460 375.784 400.057 375.535 C 399.653 375.286 395.907 376.356 391.732 377.913 C 380.388 382.145 364.369 383.700 349.352 382.026 C 342.946 381.312 336.533 380.117 335.102 379.370 C 333.671 378.623 332.037 378.010 331.471 378.006 C 329.531 377.995 316.759 372.227 316.017 371.028 C 315.610 370.369 314.942 369.925 314.533 370.042 C 314.123 370.160 311.971 368.735 309.749 366.878 C 307.527 365.020 305.009 363.090 304.153 362.588 C 303.298 362.086 301.482 360.349 300.117 358.728 C 298.753 357.106 297.125 355.267 296.499 354.640 C 294.282 352.418 288.000 343.004 288.000 341.903 C 288.000 341.289 287.296 341.056 286.435 341.387 C 285.287 341.827 285.016 341.523 285.418 340.244 C 285.720 339.285 284.904 336.211 283.605 333.413 C 279.025 323.548 276.595 310.732 276.607 296.500 C 276.613 289.350 277.202 280.800 277.917 277.500 C 279.220 271.483 285.841 252.938 287.021 252.000 C 287.367 251.725 288.517 249.938 289.575 248.028 C 293.142 241.594 305.154 229.062 312.521 224.091 C 319.746 219.214 330.427 214.824 340.500 212.591 C 353.283 209.757 362.788 209.451 376.000 211.448 "/></g>
<g fill="#FEDEDCFE" stroke="#FEDEDCFE">
<path d="M 580.550 492.524 C 578.956 494.436 577.081 496.000 576.383 496.000 C 575.685 496.000 574.470 496.919 573.683 498.042 C 572.896 499.165 571.858 500.012 571.376 499.924 C 570.894 499.835 570.613 499.816 570.750 499.882 C 571.348 500.165 567.118 503.764 563.714 505.868 C 561.671 507.130 560.000 508.576 560.000 509.082 C 560.000 509.587 559.373 510.000 558.607 510.000 C 557.841 510.000 556.944 510.704 556.614 511.563 C 556.284 512.423 555.561 512.847 555.007 512.504 C 554.453 512.162 554.000 512.359 554.000 512.941 C 554.000 513.523 553.325 514.000 552.500 514.000 C 551.675 514.000 551.000 514.428 551.000 514.952 C 551.000 516.555 556.650 513.642 560.691 509.956 C 565.043 505.986 569.977 502.644 570.587 503.254 C 570.815 503.481 568.083 506.442 564.517 509.834 C 560.951 513.225 558.486 516.000 559.041 516.000 C 559.595 516.000 564.200 511.950 569.274 507.000 C 574.348 502.050 578.161 498.000 577.747 498.000 C 577.333 498.000 578.815 496.355 581.041 494.344 C 583.267 492.333 584.719 490.319 584.268 489.868 C 583.817 489.417 582.144 490.613 580.550 492.524 "/></g>
<g fill="#FEDEDCFE" stroke="#FEDEDCFE">
<path d="M 238.000 385.031 C 238.000 385.564 238.450 386.000 239.000 386.000 C 239.550 386.000 240.000 386.689 240.000 387.531 C 240.000 388.374 240.675 389.322 241.500 389.638 C 242.325 389.955 243.000 390.741 243.000 391.385 C 243.000 392.029 243.788 393.266 244.750 394.134 C 245.713 395.001 247.400 396.987 248.500 398.545 C 249.600 400.104 251.625 402.583 253.000 404.055 C 254.375 405.527 257.271 409.016 259.436 411.809 C 261.601 414.603 263.738 416.662 264.186 416.385 C 264.634 416.108 265.000 416.480 265.000 417.211 C 265.000 418.404 273.716 426.049 275.940 426.807 C 276.436 426.976 271.027 421.245 263.921 414.071 C 256.814 406.898 251.000 400.552 251.000 399.969 C 251.000 399.386 249.908 397.817 248.573 396.482 C 247.237 395.147 245.340 392.692 244.357 391.027 C 243.373 389.362 242.216 388.000 241.784 388.000 C 241.353 388.000 241.000 387.373 241.000 386.607 C 241.000 385.841 240.325 384.955 239.500 384.638 C 238.675 384.322 238.000 384.499 238.000 385.031 "/></g>
<g fill="#FEDEDCFE" stroke="#FEDEDCFE">
<path d="M 198.168 160.977 C 196.426 162.885 195.000 164.080 195.000 163.634 C 195.000 163.188 191.811 166.125 187.913 170.161 C 184.015 174.198 179.403 178.959 177.663 180.742 C 175.923 182.525 175.006 183.988 175.624 183.992 C 176.243 183.997 177.913 182.763 179.336 181.250 C 186.666 173.459 195.101 165.176 198.369 162.563 C 200.389 160.947 201.883 159.149 201.689 158.567 C 201.495 157.985 199.911 159.069 198.168 160.977 "/></g>
<g fill="#FEDEDCFE" stroke="#FEDEDCFE">
<path d="M 653.259 270.500 C 653.253 282.069 653.506 286.062 654.051 283.000 C 655.063 277.310 655.061 265.016 654.046 258.500 C 653.507 255.043 653.265 258.745 653.259 270.500 "/></g>
<g fill="#FEDEDCFE" stroke="#FEDEDCFE">
<path d="M 509.450 550.945 C 508.033 552.354 497.000 558.112 497.000 557.442 C 497.000 557.124 495.676 557.807 494.058 558.959 C 492.440 560.111 489.484 561.736 487.489 562.569 C 485.418 563.434 484.072 564.603 484.352 565.292 C 484.723 566.207 484.861 566.197 484.921 565.250 C 484.964 564.563 485.563 564.000 486.250 564.000 C 488.160 564.000 503.000 556.753 503.000 555.820 C 503.000 555.369 503.815 555.000 504.811 555.000 C 505.808 555.000 507.560 554.127 508.705 553.060 C 509.850 551.993 511.060 551.393 511.394 551.727 C 511.727 552.060 512.000 551.808 512.000 551.167 C 512.000 549.758 510.752 549.650 509.450 550.945 "/></g>
<g fill="#FEDEDCFE" stroke="#FEDEDCFE">
<path d="M 540.500 521.107 C 538.826 522.541 520.000 531.929 520.000 531.330 C 520.000 531.022 518.891 531.497 517.535 532.385 C 516.180 533.273 514.380 534.000 513.535 534.000 C 512.691 534.000 511.888 534.408 511.750 534.906 C 511.481 535.880 520.211 533.072 524.741 530.727 C 526.259 529.942 530.789 527.625 534.810 525.579 C 538.830 523.533 541.980 521.497 541.810 521.054 C 541.639 520.612 541.050 520.635 540.500 521.107 "/></g>
<g fill="#FEDEDCFE" stroke="#FEDEDCFE">
<path d="M 240.125 454.862 C 240.570 456.184 248.606 465.232 255.180 471.814 L 259.860 476.500 254.930 470.739 C 252.218 467.571 250.000 464.507 250.000 463.930 C 250.000 463.354 249.550 463.160 249.000 463.500 C 248.450 463.840 248.000 463.703 248.000 463.195 C 248.000 462.688 246.763 461.035 245.250 459.523 C 243.738 458.010 242.500 456.299 242.500 455.720 C 242.500 455.141 241.881 454.460 241.125 454.208 C 240.369 453.956 239.919 454.251 240.125 454.862 "/></g>
<g fill="#FEDEDCFE" stroke="#FEDEDCFE">
<path d="M 148.748 176.282 C 143.783 186.107 141.323 191.930 140.633 195.500 C 140.076 198.384 140.095 198.403 141.135 196.000 C 141.729 194.625 142.868 192.263 143.665 190.750 C 144.461 189.238 144.852 188.000 144.533 188.000 C 144.215 188.000 144.691 186.875 145.592 185.500 C 146.493 184.125 146.931 183.000 146.566 183.000 C 146.201 183.000 147.551 180.052 149.566 176.448 C 151.581 172.845 153.042 169.709 152.813 169.480 C 152.584 169.251 150.755 172.311 148.748 176.282 "/></g>
<g fill="#FEDEDCFE" stroke="#FEDEDCFE">
<path d="M 93.981 416.660 C 94.548 416.941 94.758 417.582 94.447 418.085 C 94.136 418.588 94.359 419.000 94.941 419.000 C 95.523 419.000 95.888 419.348 95.750 419.774 C 95.356 420.994 104.301 439.000 105.301 439.000 C 105.794 439.000 105.253 437.399 104.099 435.443 C 102.944 433.486 102.000 431.297 102.000 430.578 C 102.000 429.858 101.103 428.130 100.008 426.737 C 98.912 425.344 97.449 422.505 96.758 420.428 C 96.066 418.352 94.926 416.540 94.225 416.402 C 93.524 416.263 93.414 416.380 93.981 416.660 "/></g>
<g fill="#FEDEDCFE" stroke="#FEDEDCFE">
<path d="M 614.906 383.204 C 613.071 385.567 610.798 388.400 609.854 389.500 C 604.363 395.902 602.409 398.657 602.452 399.936 C 602.478 400.726 604.244 398.840 606.376 395.745 C 608.507 392.650 610.870 389.880 611.626 389.590 C 612.382 389.300 613.000 388.389 613.000 387.567 C 613.000 386.744 613.913 385.582 615.028 384.985 C 616.143 384.388 616.809 383.500 616.507 383.011 C 616.205 382.523 616.751 381.679 617.721 381.136 C 618.690 380.594 619.204 379.871 618.862 379.529 C 618.521 379.187 616.740 380.841 614.906 383.204 "/></g>
<g fill="#FEDEDCFE" stroke="#FEDEDCFE">
<path d="M 567.413 305.985 C 566.361 308.180 565.163 309.982 564.750 309.989 C 564.338 309.995 564.000 310.689 564.000 311.531 C 564.000 312.374 563.325 313.322 562.500 313.638 C 561.675 313.955 561.000 314.841 561.000 315.607 C 561.000 316.373 560.550 317.000 560.000 317.000 C 559.450 317.000 559.000 317.661 559.000 318.469 C 559.000 319.363 558.414 319.712 557.500 319.362 C 556.550 318.997 556.000 319.375 556.000 320.393 C 556.000 321.277 556.341 322.000 556.757 322.000 C 557.731 322.000 564.175 315.005 563.219 314.985 C 562.824 314.976 562.953 314.639 563.508 314.235 C 564.872 313.240 570.310 302.976 569.762 302.429 C 569.522 302.189 568.465 303.789 567.413 305.985 "/></g>
<g fill="#FEDEDCFE" stroke="#FEDEDCFE">
<path d="M 568.028 86.306 C 570.488 88.613 573.951 92.327 575.724 94.559 C 577.498 96.791 579.912 99.041 581.089 99.559 C 582.265 100.077 580.702 97.932 577.614 94.794 C 574.526 91.655 572.000 88.694 572.000 88.213 C 572.000 87.732 570.897 86.747 569.548 86.026 C 568.199 85.304 567.187 84.275 567.298 83.739 C 567.409 83.204 566.613 82.619 565.528 82.439 C 564.128 82.207 564.853 83.328 568.028 86.306 "/></g>
<g fill="#FEDEDCFE" stroke="#FEDEDCFE">
<path d="M 66.750 276.401 C 65.916 285.185 65.736 300.598 66.475 299.858 C 66.737 299.597 67.074 292.434 67.225 283.941 C 67.436 272.122 67.324 270.353 66.750 276.401 "/></g>
<g fill="#FEDEDCFE" stroke="#FEDEDCFE">
<path d="M 503.000 157.450 C 503.000 158.405 509.052 164.087 515.835 169.500 L 520.847 173.500 515.447 168.000 C 512.477 164.975 508.680 161.375 507.007 160.000 C 505.335 158.625 503.750 157.313 503.484 157.083 C 503.218 156.854 503.000 157.019 503.000 157.450 "/></g>
<g fill="#FEDEDCFE" stroke="#FEDEDCFE">
<path d="M 101.620 152.750 C 100.694 154.813 98.411 159.188 96.547 162.473 C 94.682 165.758 93.350 168.757 93.585 169.137 C 93.820 169.518 93.447 170.057 92.756 170.336 C 91.882 170.688 91.858 170.866 92.677 170.921 C 93.901 171.003 97.000 165.633 97.000 163.430 C 97.000 162.735 97.338 162.017 97.750 161.833 C 99.011 161.273 105.198 149.000 104.219 149.000 C 103.716 149.000 102.546 150.688 101.620 152.750 "/></g>
<g fill="#FEDEDCFE" stroke="#FEDEDCFE">
<path d="M 195.500 111.441 C 187.219 119.981 187.059 120.217 193.500 114.391 C 197.350 110.909 201.400 106.733 202.500 105.110 C 203.600 103.488 200.450 106.337 195.500 111.441 "/></g>
<g fill="#FEDEDCFE" stroke="#FEDEDCFE">
<path d="M 425.750 240.015 C 427.538 241.641 429.000 243.222 429.000 243.528 C 429.000 243.833 429.900 245.050 431.000 246.230 C 432.100 247.411 433.000 248.967 433.000 249.689 C 433.000 250.410 433.420 251.000 433.933 251.000 C 434.446 251.000 435.228 252.013 435.671 253.250 C 436.401 255.286 436.482 255.310 436.523 253.500 C 436.548 252.400 436.326 251.275 436.029 251.000 C 434.443 249.532 429.999 243.000 430.587 243.000 C 430.965 243.000 429.576 241.650 427.500 240.000 C 422.659 236.153 421.516 236.163 425.750 240.015 "/></g>
<g fill="#FEDEDCFE" stroke="#FEDEDCFE">
<path d="M 624.044 162.000 C 624.741 163.375 625.697 165.175 626.168 166.000 C 627.956 169.128 631.340 176.541 631.418 177.500 C 631.463 178.050 632.010 178.500 632.633 178.500 C 633.921 178.500 626.706 163.290 624.332 161.000 C 622.930 159.648 622.902 159.747 624.044 162.000 "/></g>
<g fill="#FEDEDCFE" stroke="#FEDEDCFE">
<path d="M 468.000 60.059 C 471.083 62.172 487.225 70.109 487.625 69.709 C 488.067 69.266 468.466 58.989 467.229 59.015 C 466.828 59.024 467.175 59.493 468.000 60.059 "/></g>
<g fill="#FEDEDCFE" stroke="#FEDEDCFE">
<path d="M 291.847 348.500 C 292.421 349.600 294.073 351.850 295.519 353.500 C 299.668 358.234 304.568 363.149 303.812 361.820 C 303.433 361.154 303.329 360.277 303.579 359.872 C 303.830 359.466 302.677 358.332 301.018 357.351 C 299.358 356.371 298.000 355.298 298.000 354.966 C 298.000 354.635 296.381 352.594 294.403 350.432 C 292.424 348.269 291.274 347.400 291.847 348.500 "/></g>
<g fill="#FEDEDCFE" stroke="#FEDEDCFE">
<path d="M 532.000 101.467 C 532.000 102.539 543.198 114.000 544.245 114.000 C 544.740 114.000 544.325 112.975 543.323 111.723 C 540.774 108.539 532.000 100.591 532.000 101.467 "/></g>
<g fill="#FEDEDCFE" stroke="#FEDEDCFE">
<path d="M 434.500 549.000 L 424.500 549.613 434.500 549.707 C 440.000 549.758 445.625 549.440 447.000 549.000 L 449.500 548.199 447.000 548.293 C 445.625 548.345 440.000 548.663 434.500 549.000 "/></g>
<g fill="#FEDEDCFE" stroke="#FEDEDCFE">
<path d="M 488.500 147.448 C 492.350 150.041 495.934 152.239 496.465 152.331 C 496.996 152.424 498.218 153.400 499.182 154.500 C 500.145 155.600 500.948 156.007 500.967 155.405 C 501.012 153.911 497.671 151.000 495.911 151.000 C 495.124 151.000 493.266 149.875 491.783 148.500 C 490.301 147.125 488.655 146.000 488.127 146.000 C 487.599 146.000 487.017 145.609 486.833 145.132 C 486.650 144.655 485.375 143.920 484.000 143.499 C 482.625 143.078 484.650 144.855 488.500 147.448 "/></g>
<g fill="#FEDEDCFE" stroke="#FEDEDCFE">
<path d="M 511.000 42.425 C 511.000 42.556 513.363 44.147 516.250 45.961 C 519.138 47.774 523.075 50.322 525.000 51.621 C 527.566 53.354 528.422 53.587 528.206 52.492 C 528.045 51.672 527.257 51.000 526.456 51.000 C 525.655 51.000 525.000 50.559 525.000 50.019 C 525.000 49.480 523.875 48.756 522.500 48.411 C 521.125 48.066 520.000 47.382 520.000 46.892 C 520.000 46.401 519.380 46.000 518.622 46.000 C 517.865 46.000 516.725 45.374 516.090 44.608 C 515.121 43.441 511.000 41.673 511.000 42.425 "/></g>
<g fill="#FEDEDCFE" stroke="#FEDEDCFE">
<path d="M 168.876 519.750 C 171.247 522.638 173.804 525.000 174.558 525.000 C 175.312 525.000 176.411 525.900 177.000 527.000 C 178.319 529.465 179.943 529.629 179.488 527.250 C 179.304 526.288 179.119 525.855 179.077 526.289 C 178.988 527.202 177.857 526.339 170.179 519.500 L 164.566 514.500 168.876 519.750 "/></g>
<g fill="#FEDEDCFE" stroke="#FEDEDCFE">
<path d="M 257.310 573.693 C 258.094 574.960 271.946 579.388 272.717 578.617 C 273.030 578.303 272.659 577.879 271.893 577.673 C 271.127 577.467 268.250 576.510 265.500 575.546 C 257.817 572.852 256.624 572.582 257.310 573.693 "/></g>
<g fill="#FEDEDCFE" stroke="#FEDEDCFE">
<path d="M 181.000 528.611 C 181.000 530.194 183.280 533.000 184.567 533.000 C 185.389 533.000 186.322 533.675 186.638 534.500 C 186.955 535.325 187.793 536.000 188.500 536.000 C 189.207 536.000 190.056 536.704 190.386 537.563 C 190.716 538.423 191.442 538.845 192.000 538.500 C 192.558 538.155 193.284 538.577 193.614 539.437 C 193.944 540.296 194.728 540.986 195.357 540.968 C 196.573 540.935 193.262 537.804 188.516 534.500 C 186.935 533.400 184.598 531.508 183.321 530.295 C 182.045 529.083 181.000 528.325 181.000 528.611 "/></g>
<g fill="#FEDEDCFE" stroke="#FEDEDCFE">
<path d="M 445.486 296.586 C 445.494 301.213 445.838 304.999 446.250 304.999 C 447.239 305.000 447.225 289.257 446.236 288.646 C 445.816 288.386 445.478 291.959 445.486 296.586 "/></g>
<g fill="#FEDEDCFE" stroke="#FEDEDCFE">
<path d="M 186.500 58.079 C 185.055 59.482 181.529 62.265 178.997 64.000 C 173.970 67.444 173.541 67.874 174.333 68.667 C 174.790 69.123 175.689 68.798 176.332 67.945 C 176.974 67.091 180.141 64.410 183.369 61.986 C 186.597 59.562 188.847 57.473 188.369 57.343 C 187.891 57.213 187.050 57.544 186.500 58.079 "/></g>
<g fill="#FEDEDCFE" stroke="#FEDEDCFE">
<path d="M 263.250 479.992 C 264.213 480.601 265.010 481.640 265.021 482.300 C 265.046 483.686 273.000 489.590 273.000 488.222 C 273.000 487.204 264.331 479.670 262.609 479.192 C 261.999 479.023 262.288 479.382 263.250 479.992 "/></g>
<g fill="#FEDEDCFE" stroke="#FEDEDCFE">
<path d="M 352.348 382.235 C 353.773 383.143 366.619 383.208 369.926 382.324 C 371.261 381.967 367.592 381.635 361.774 381.587 C 355.956 381.539 351.714 381.831 352.348 382.235 "/></g>
<g fill="#FEDEDCFE" stroke="#FEDEDCFE">
<path d="M 220.187 354.250 C 221.956 357.688 223.425 360.950 223.451 361.500 C 223.478 362.050 224.063 362.455 224.750 362.400 C 225.438 362.345 225.523 362.233 224.941 362.150 C 224.359 362.068 224.178 361.522 224.539 360.937 C 224.900 360.352 224.539 359.115 223.736 358.187 C 222.934 357.259 221.453 354.588 220.446 352.250 C 219.439 349.913 218.245 348.000 217.793 348.000 C 217.341 348.000 218.418 350.813 220.187 354.250 "/></g>
<g fill="#FEDEDCFE" stroke="#FEDEDCFE">
<path d="M 276.606 288.583 C 275.784 290.726 275.835 303.408 276.675 305.596 C 277.046 306.563 277.319 302.776 277.281 297.179 C 277.244 291.582 276.940 287.714 276.606 288.583 "/></g>
<g fill="#FEDEDCFE" stroke="#FEDEDCFE">
<path d="M 168.079 194.250 C 168.036 195.213 167.550 196.000 167.000 196.000 C 166.450 196.000 166.000 196.675 166.000 197.500 C 166.000 198.325 165.550 199.000 165.000 199.000 C 164.450 199.000 164.000 199.675 164.000 200.500 C 164.000 201.325 163.663 202.003 163.250 202.006 C 161.769 202.019 159.064 207.922 160.214 208.632 C 160.874 209.040 161.024 208.847 160.591 208.147 C 160.189 207.497 160.562 206.722 161.437 206.386 C 162.296 206.056 163.000 205.353 163.000 204.823 C 163.000 204.294 164.382 201.851 166.072 199.396 C 167.761 196.940 168.922 194.384 168.651 193.715 C 168.373 193.030 168.123 193.263 168.079 194.250 "/></g>
<g fill="#FEDEDCFE" stroke="#FEDEDCFE">
<path d="M 168.334 72.615 C 166.593 74.202 163.554 77.075 161.582 79.000 L 157.996 82.500 162.538 79.000 C 169.885 73.338 170.859 72.443 171.188 71.051 C 171.359 70.324 170.075 71.028 168.334 72.615 "/></g>
<g fill="#FEDEDCFE" stroke="#FEDEDCFE">
<path d="M 446.000 52.044 C 446.000 52.618 446.563 52.985 447.250 52.860 C 447.938 52.735 450.300 53.424 452.500 54.392 C 454.700 55.360 457.544 56.231 458.820 56.326 C 460.096 56.422 458.059 55.263 454.295 53.750 C 446.671 50.687 446.000 50.549 446.000 52.044 "/></g>
<g fill="#FEDEDCFE" stroke="#FEDEDCFE">
<path d="M 436.013 338.968 C 435.323 340.636 434.417 342.000 434.000 342.000 C 433.583 342.000 432.683 343.350 432.000 345.000 C 431.317 346.650 430.362 348.000 429.879 348.000 C 429.395 348.000 429.012 348.563 429.027 349.250 C 429.066 351.051 434.850 344.113 436.620 340.142 C 437.443 338.295 437.926 336.593 437.693 336.360 C 437.460 336.127 436.704 337.300 436.013 338.968 "/></g>
<g fill="#FEDEDCFE" stroke="#FEDEDCFE">
<path d="M 90.028 176.752 C 89.308 178.263 88.041 181.075 87.213 183.000 C 86.384 184.925 85.318 187.288 84.844 188.250 C 84.351 189.253 84.364 190.000 84.875 190.000 C 85.366 190.000 86.756 187.413 87.964 184.250 C 89.172 181.088 90.605 177.669 91.149 176.653 C 91.693 175.637 91.958 174.625 91.737 174.404 C 91.517 174.184 90.748 175.240 90.028 176.752 "/></g>
<g fill="#FEDEDCFE" stroke="#FEDEDCFE">
<path d="M 155.946 507.259 C 160.041 511.484 163.536 514.797 163.713 514.621 C 164.089 514.244 154.461 504.391 150.929 501.538 C 149.593 500.459 151.851 503.033 155.946 507.259 "/></g>
<g fill="#FEDEDCFE" stroke="#FEDEDCFE">
<path d="M 274.000 489.044 C 274.000 490.340 281.983 498.000 283.333 498.000 C 283.791 498.000 283.979 497.438 283.750 496.750 C 283.521 496.063 282.855 495.500 282.271 495.500 C 281.686 495.500 279.586 493.780 277.604 491.679 C 275.622 489.577 274.000 488.392 274.000 489.044 "/></g>
<g fill="#FEDEDCFE" stroke="#FEDEDCFE">
<path d="M 353.125 210.704 C 352.369 211.004 356.102 211.250 361.422 211.250 C 366.742 211.250 370.361 210.969 369.465 210.625 C 367.506 209.873 355.065 209.933 353.125 210.704 "/></g>
<g fill="#FEDEDCFE" stroke="#FEDEDCFE">
<path d="M 637.961 192.000 C 639.353 197.813 641.136 202.000 642.220 202.000 C 642.784 202.000 642.627 201.256 641.872 200.346 C 641.118 199.437 640.613 198.537 640.750 198.346 C 640.888 198.156 640.944 197.775 640.875 197.500 C 640.806 197.225 640.638 196.550 640.500 196.000 C 640.363 195.450 640.194 194.411 640.125 193.691 C 640.056 192.971 639.353 191.509 638.562 190.441 C 637.252 188.673 637.198 188.812 637.961 192.000 "/></g>
<g fill="#FEDEDCFE" stroke="#FEDEDCFE">
<path d="M 546.120 213.250 C 547.270 216.138 548.437 219.063 548.713 219.750 C 548.988 220.438 549.668 221.000 550.222 221.000 C 550.776 221.000 550.493 219.875 549.592 218.500 C 548.691 217.125 548.198 216.000 548.497 216.000 C 548.796 216.000 548.122 214.200 547.000 212.000 C 544.121 206.356 543.644 207.033 546.120 213.250 "/></g>
<g fill="#FEDEDCFE" stroke="#FEDEDCFE">
<path d="M 82.760 195.000 C 82.354 195.825 81.107 199.188 79.988 202.473 C 77.674 209.269 78.989 208.863 81.519 202.000 C 83.251 197.304 84.165 192.147 82.760 195.000 "/></g>
<g fill="#FEDEDCFE" stroke="#FEDEDCFE">
<path d="M 255.802 126.531 C 255.510 126.824 254.284 127.253 253.079 127.485 C 251.873 127.717 249.406 128.822 247.597 129.940 C 245.787 131.059 244.013 131.679 243.653 131.320 C 243.294 130.961 243.000 131.192 243.000 131.833 C 243.000 132.475 243.163 133.000 243.362 133.000 C 244.481 133.000 257.142 126.809 256.774 126.441 C 256.532 126.199 256.094 126.239 255.802 126.531 "/></g>
<g fill="#FEDEDCFE" stroke="#FEDEDCFE">
<path d="M 603.175 129.177 C 604.454 131.474 606.063 133.536 606.750 133.760 C 608.743 134.408 608.206 132.702 605.500 129.783 C 604.125 128.301 603.000 126.618 603.000 126.044 C 603.000 125.470 602.516 125.000 601.925 125.000 C 601.334 125.000 601.896 126.879 603.175 129.177 "/></g>
<g fill="#FEDEDCFE" stroke="#FEDEDCFE">
<path d="M 227.500 83.247 C 225.850 84.447 224.225 85.822 223.888 86.300 C 223.552 86.779 222.877 87.036 222.388 86.872 C 221.900 86.707 222.131 86.963 222.902 87.439 C 223.827 88.011 224.714 87.744 225.512 86.653 C 226.177 85.744 227.050 85.000 227.453 85.000 C 227.855 85.000 229.329 84.100 230.727 83.000 C 234.187 80.279 231.272 80.502 227.500 83.247 "/></g>
<g fill="#FEDEDCFE" stroke="#FEDEDCFE">
<path d="M 240.250 74.993 C 238.463 76.081 237.000 76.720 237.000 76.414 C 237.000 76.108 236.325 76.532 235.500 77.357 C 234.675 78.182 234.014 79.452 234.032 80.179 C 234.056 81.180 234.358 81.137 235.282 79.998 C 235.952 79.172 238.190 77.606 240.256 76.517 C 242.322 75.429 243.897 74.196 243.756 73.777 C 243.615 73.358 242.038 73.905 240.250 74.993 "/></g>
<g fill="#FEDEDCFE" stroke="#FEDEDCFE">
<path d="M 353.000 534.898 C 353.000 535.303 355.588 536.497 358.750 537.552 C 366.346 540.084 367.663 540.384 366.667 539.358 C 366.208 538.886 365.533 538.461 365.167 538.414 C 364.800 538.366 363.600 537.995 362.500 537.589 C 354.955 534.802 353.000 534.248 353.000 534.898 "/></g>
<g fill="#FEDEDCFE" stroke="#FEDEDCFE">
<path d="M 284.000 433.878 C 284.000 435.038 286.991 437.500 287.030 436.372 C 287.047 435.893 287.519 436.288 288.080 437.250 C 288.641 438.213 289.752 439.000 290.550 439.000 C 291.347 439.000 292.000 439.488 292.000 440.083 C 292.000 440.679 292.504 440.999 293.120 440.793 C 293.736 440.588 292.498 439.107 290.370 437.501 C 288.241 435.896 286.350 434.227 286.167 433.791 C 285.714 432.716 284.000 432.785 284.000 433.878 "/></g>
<g fill="#FEDEDCFE" stroke="#FEDEDCFE">
<path d="M 89.331 406.750 C 90.125 408.263 91.388 410.850 92.137 412.500 C 93.034 414.474 93.433 414.816 93.305 413.500 C 92.996 410.337 90.078 404.000 88.930 404.000 C 88.303 404.000 88.463 405.097 89.331 406.750 "/></g>
<g fill="#FEDEDCFE" stroke="#FEDEDCFE">
<path d="M 411.027 225.709 C 414.165 227.878 416.311 229.963 415.571 230.125 C 415.257 230.194 415.338 230.322 415.750 230.410 C 416.163 230.499 417.625 231.166 419.000 231.894 C 420.375 232.621 419.250 231.163 416.500 228.653 C 413.750 226.143 410.837 224.069 410.027 224.045 C 409.151 224.018 409.556 224.692 411.027 225.709 "/></g>
<g fill="#FEDEDCFE" stroke="#FEDEDCFE">
<path d="M 111.000 137.417 C 111.000 138.288 110.550 139.000 110.000 139.000 C 109.450 139.000 109.000 139.675 109.000 140.500 C 109.000 141.325 108.572 142.000 108.049 142.000 C 107.526 142.000 106.738 143.381 106.299 145.069 C 105.676 147.461 106.327 146.856 109.253 142.319 C 111.317 139.120 112.554 136.351 112.003 136.168 C 111.451 135.984 111.000 136.546 111.000 137.417 "/></g>
<g fill="#FEDEDCFE" stroke="#FEDEDCFE">
<path d="M 519.703 91.469 C 520.691 92.826 521.999 93.951 522.610 93.969 C 523.220 93.986 524.544 95.098 525.552 96.440 C 526.560 97.782 527.740 98.661 528.173 98.393 C 528.607 98.125 527.283 96.465 525.231 94.704 C 523.179 92.944 521.140 90.940 520.700 90.252 C 520.260 89.563 519.452 89.000 518.904 89.000 C 518.355 89.000 518.715 90.111 519.703 91.469 "/></g>
<g fill="#FEDEDCFE" stroke="#FEDEDCFE">
<path d="M 371.500 1.963 C 370.182 2.504 372.014 2.805 376.869 2.845 C 380.923 2.878 384.073 2.763 383.869 2.588 C 382.870 1.730 373.250 1.243 371.500 1.963 "/></g>
<g fill="#FEDEDCFE" stroke="#FEDEDCFE">
<path d="M 336.500 1.982 C 335.103 2.569 336.231 2.818 340.245 2.808 C 343.405 2.800 345.741 2.390 345.436 1.897 C 344.752 0.790 339.208 0.843 336.500 1.982 "/></g>
<g fill="#FEDEDCFE" stroke="#FEDEDCFE">
<path d="M 113.710 454.000 C 113.998 455.100 114.631 456.000 115.117 456.000 C 115.602 456.000 116.000 456.675 116.000 457.500 C 116.000 458.325 116.450 459.000 117.000 459.000 C 117.550 459.000 118.000 459.675 118.000 460.500 C 118.000 461.325 118.450 462.000 119.000 462.000 C 119.550 462.000 120.036 462.788 120.079 463.750 C 120.122 464.713 120.374 464.970 120.638 464.323 C 121.025 463.373 114.394 452.000 113.452 452.000 C 113.306 452.000 113.423 452.900 113.710 454.000 "/></g>
<g fill="#FEDEDCFE" stroke="#FEDEDCFE">
<path d="M 648.368 224.500 C 648.623 225.600 649.121 228.627 649.474 231.227 C 649.827 233.826 650.616 236.263 651.228 236.641 C 651.978 237.104 652.101 236.706 651.606 235.415 C 651.202 234.362 650.626 231.701 650.327 229.501 C 650.027 227.300 649.359 224.825 648.843 224.000 C 648.108 222.825 648.005 222.933 648.368 224.500 "/></g>
<g fill="#FEDEDCFE" stroke="#FEDEDCFE">
<path d="M 158.880 156.879 C 157.291 158.469 154.000 164.298 154.000 165.522 C 154.000 165.863 154.675 165.468 155.500 164.643 C 156.325 163.818 157.000 162.721 157.000 162.206 C 157.000 161.691 157.951 160.060 159.114 158.582 C 161.501 155.547 161.345 154.412 158.880 156.879 "/></g>
<g fill="#FEDEDCFE" stroke="#FEDEDCFE">
<path d="M 434.623 121.003 C 436.233 122.576 449.059 126.897 447.667 125.398 C 447.208 124.904 446.533 124.461 446.167 124.414 C 445.800 124.366 444.825 124.045 444.000 123.699 C 439.930 121.995 433.849 120.247 434.623 121.003 "/></g>
<g fill="#FEDEDCFE" stroke="#FEDEDCFE">
<path d="M 122.059 465.792 C 122.004 467.003 122.676 468.036 125.750 471.463 C 126.438 472.230 127.000 473.339 127.000 473.929 C 127.000 474.518 127.450 475.000 128.000 475.000 C 129.517 475.000 129.221 474.059 126.750 471.028 C 125.513 469.510 123.964 467.420 123.309 466.384 C 122.607 465.274 122.093 465.031 122.059 465.792 "/></g>
<g fill="#FEDEDCFE" stroke="#FEDEDCFE">
<path d="M 299.750 47.299 C 298.238 47.897 297.000 48.735 297.000 49.162 C 297.000 49.910 298.027 49.734 301.750 48.349 C 302.713 47.991 304.104 47.575 304.842 47.424 C 305.580 47.273 306.442 46.891 306.758 46.575 C 307.715 45.618 302.690 46.138 299.750 47.299 "/></g>
<g fill="#FEDEDCFE" stroke="#FEDEDCFE">
<path d="M 498.015 34.672 C 498.007 35.317 500.700 37.193 504.000 38.842 C 507.300 40.491 510.000 41.482 510.000 41.043 C 510.000 40.605 507.638 39.234 504.750 37.998 C 501.863 36.761 499.169 35.243 498.765 34.624 C 498.230 33.806 498.026 33.819 498.015 34.672 "/></g>
</svg>
